<svg xmlns="http://www.w3.org/2000/svg" xmlns:xlink="http://www.w3.org/1999/xlink" width="100%" height="100%" viewBox="0 0 138 166" version="1.1" xml:space="preserve" style="fill-rule:evenodd;clip-rule:evenodd;stroke-linejoin:round;stroke-miterlimit:1.41421;"><path d="M138,96.959c0,38.105 -30.918,69.041 -69,69.041c-38.082,0 -69,-30.935 -69,-69.041l0,-96.959l138,0l0,96.959Z"/><clipPath id="_clip1"><path d="M138,96.959c0,38.105 -30.918,69.041 -69,69.041c-38.082,0 -69,-30.935 -69,-69.041l0,-96.959l138,0l0,96.959Z"/></clipPath><g clip-path="url(#_clip1)"><path d="M1,1l136,0l0,95.917c0,37.576 -30.47,68.083 -68,68.083c-37.53,0 -68,-30.507 -68,-68.083l0,-95.917Z" style="fill:#e07713;"/><clipPath id="_clip2"><path d="M1,1l136,0l0,95.917c0,37.576 -30.47,68.083 -68,68.083c-37.53,0 -68,-30.507 -68,-68.083l0,-95.917Z"/></clipPath><g clip-path="url(#_clip2)"><rect x="0.249" y="28.835" width="69.127" height="136.917"/><clipPath id="_clip3"><rect x="0.249" y="28.835" width="69.127" height="136.917"/></clipPath><g clip-path="url(#_clip3)"><g id="minerva"><g id="clothes"><path d="M13.795,106.863c-0.164,-2.165 0.584,-5.985 1.132,-7.439c0.003,-0.008 0.008,-0.016 0.014,-0.023c3.466,-3.633 8.907,-6.201 14.627,-6.555c-1.213,4.348 -0.679,5.022 -2.364,9.523c2.493,-3.467 2.922,-6.772 3.687,-9.658c0.76,-2.869 1.869,-4.922 4.521,-7.558c5.092,-0.216 10.575,1.651 20.418,9.681c-7.487,2.586 -19.956,11.342 -28.856,19.028c-5.309,-2.365 -9.48,-4.553 -13.179,-6.999l0,0Z" style="fill:#fcef00;"/><path d="M16.68,88.5c-1.652,3.158 -4.497,14.99 -4.208,17.89c0,0 -4.63,-3.836 -5.722,-5.821c2.222,-5.109 5.574,-9.244 9.93,-12.069Z" style="fill:#fcef00;"/></g><g id="hair"><path d="M31.559,71.576c0.588,3.052 -0.368,6.073 -1.753,8.402c1.058,3.63 3.774,3.274 9.055,3.838c0.434,-4.067 -1.908,-5.929 -7.302,-12.24l0,0Z" style="fill:#fcef00;"/><path d="M29.705,69.692c-0.906,2.59 -1.048,5.238 -0.628,8.207c1.316,-2.33 1.579,-5.417 0.628,-8.207l0,0Z" style="fill:#fcef00;"/></g><g id="face"><path d="M17.384,60.289c-0.492,1.405 -0.668,2.353 -0.906,3.353c-0.288,1.205 -0.37,2.355 -0.648,3.127c-0.961,2.673 -1.754,3.121 -1.627,3.969c0.19,1.275 1.12,1.799 3.062,1.251c0.128,1.449 -2.111,1.424 -2.284,2.347c-0.278,1.477 2.36,0.98 2.543,1.345c0.216,0.433 -1.936,0.693 -2.168,1.161c-0.745,1.509 -0.097,3.435 0.95,3.914c2.524,1.157 6.011,-2.003 6.687,-1.283c0.967,1.028 -2.406,1.642 -4.606,7.245c-1.707,4.348 -2.998,9.324 -3.12,10.913c1.293,-2.054 7.859,-5.608 14.677,-6.184c0.576,-1.359 1.492,-3.51 2.885,-5.161c-2.913,0.274 -4.319,-4.012 -4.943,-6.745c-0.318,-1.393 -0.545,-2.929 -0.556,-4.644c-0.014,-2.088 0.069,-4.4 0.929,-6.97c-2.82,-2.925 -6.306,-6.037 -10.875,-7.638l0,0Z" style="fill:#fcef00;"/><path id="eye" d="M19.874,67.355c-2.44,-1.541 -2.452,-3.788 -1.716,-4.367c0.601,-0.473 1.124,-0.442 1.709,-0.306c1.416,0.328 2.325,1.73 3.282,3.382c-0.866,-0.971 -1.598,-1.629 -2.096,-1.743c-0.256,0.808 -0.924,1.103 -2.499,0.27c0.055,0.993 0.522,1.909 1.32,2.764Z"/></g><g id="helmet"><path d="M31.101,44.165c1.047,-2.613 3.035,-5.054 5.649,-7.415c7.383,2.454 11.591,5.962 14.81,10.595c2.179,3.135 3.555,5.602 4.864,10.74c1.668,6.541 2.884,12.339 3.576,19.165c0.558,5.507 1.897,8.535 3,13.5c-1.95,-0.836 -4.934,-2.814 -7.969,-7.811c-3.191,-5.253 -3.851,-11.427 -5.906,-23.689c-0.813,-4.854 -2.864,-8.913 -5.294,-11.28c-2.992,-2.913 -7.541,-4.145 -12.73,-3.805l0,0Z" style="fill:#fcef00;"/><path d="M48.182,66.883c-0.814,4.429 -0.093,7.434 1.901,9.791c-1.217,-2.882 0.4,-6.252 -1.901,-9.791Z" style="fill:#fcef00;"/><path d="M39.525,78.76c-8.411,-11.742 -16.782,-19.315 -25.098,-21.159c0.486,-1.136 1.186,-1.79 2.092,-1.868c2.659,-0.228 6.304,2.647 10.949,6.705c4.656,4.067 9.331,9.59 11.259,13.151c0.793,1.464 1.132,2.483 0.798,3.171Z" style="fill:#fcef00;"/><path d="M14.142,58.591c-0.367,1.143 -0.24,2.182 0.285,3.459c0.443,-1.213 0.629,-2.288 1.694,-2.841c-0.418,-0.334 -1.246,-0.721 -1.979,-0.618Z" style="fill:#fcef00;"/><path d="M20.955,52.083c13.373,9.265 18.973,16.47 20.087,21.133c-8.089,-9.966 -15.418,-16.193 -21.698,-19.716c1.102,1.451 3.072,2.502 4.675,3.774c1.974,1.566 3.634,3.318 5.342,4.776c6.289,5.368 11.262,11.63 11.242,12.775c9.677,-11.814 6.172,-20.159 2.384,-24.218c-5.176,-5.548 -13.646,-7.077 -22.032,1.476l0,0Z" style="fill:#fcef00;"/></g></g></g><g><g transform="matrix(0.52285,0.852425,-0.852425,0.52285,109.584,49.1765)"><text x="10.865px" y="122.473px" style="font-family:'ArialMT', 'Arial', sans-serif;font-size:10.8px;fill:#fcef00;">U</text></g><g transform="matrix(0.623677,0.781682,-0.781682,0.623677,108.164,36.6401)"><text x="16.028px" y="130.657px" style="font-family:'ArialMT', 'Arial', sans-serif;font-size:10.8px;fill:#fcef00;">n</text></g><g transform="matrix(0.685821,0.72777,-0.72777,0.685821,105.971,27.69)"><text x="20.915px" y="136.582px" style="font-family:'ArialMT', 'Arial', sans-serif;font-size:10.8px;fill:#fcef00;">i</text></g><g transform="matrix(0.740525,0.672029,-0.672029,0.740525,99.6796,20.398)"><text x="23.425px" y="139.282px" style="font-family:'ArialMT', 'Arial', sans-serif;font-size:10.8px;fill:#fcef00;">v</text></g><g transform="matrix(0.807818,0.589433,-0.589432,0.807818,90.3608,10.7866)"><text x="28.639px" y="143.964px" style="font-family:'ArialMT', 'Arial', sans-serif;font-size:10.8px;fill:#fcef00;">e</text></g><g transform="matrix(0.862674,0.505761,-0.505761,0.862674,79.8614,2.72428)"><text x="34.914px" y="148.423px" style="font-family:'ArialMT', 'Arial', sans-serif;font-size:10.8px;fill:#fcef00;">r</text></g><g transform="matrix(0.900447,0.434966,-0.434966,0.900447,69.5716,-2.03176)"><text x="39.224px" y="150.97px" style="font-family:'ArialMT', 'Arial', sans-serif;font-size:10.8px;fill:#fcef00;">s</text></g><g transform="matrix(0.932061,0.3623,-0.3623,0.932061,58.8604,-6.05426)"><text x="45.573px" y="153.917px" style="font-family:'ArialMT', 'Arial', sans-serif;font-size:10.8px;fill:#fcef00;">i</text></g><g transform="matrix(0.952442,0.30472,-0.30472,0.952442,49.6329,-7.55076)"><text x="49.007px" y="155.232px" style="font-family:'ArialMT', 'Arial', sans-serif;font-size:10.8px;fill:#fcef00;">t</text></g><g transform="matrix(0.976207,0.21684,-0.21684,0.976207,35.219,-7.79714)"><text x="53.14px" y="156.589px" style="font-family:'ArialMT', 'Arial', sans-serif;font-size:10.8px;fill:#fcef00;">e</text></g><g transform="matrix(0.991991,0.126306,-0.126307,0.991991,20.4575,-6.3967)"><text x="60.67px" y="158.12px" style="font-family:'ArialMT', 'Arial', sans-serif;font-size:10.8px;fill:#fcef00;">i</text></g><g transform="matrix(0.998363,0.0571917,-0.0571917,0.998363,9.17377,-3.41827)"><text x="64.307px" y="158.564px" style="font-family:'ArialMT', 'Arial', sans-serif;font-size:10.8px;fill:#fcef00;">t</text></g><g transform="matrix(0.989832,-0.142241,0.142241,0.989832,-21.853,11.9088)"><text x="72.371px" y="158.807px" style="font-family:'ArialMT', 'Arial', sans-serif;font-size:10.8px;fill:#fcef00;">A</text></g><g transform="matrix(0.958689,-0.284455,0.284455,0.95869,-41.3807,29.7032)"><text x="81.574px" y="157.321px" style="font-family:'ArialMT', 'Arial', sans-serif;font-size:10.8px;fill:#fcef00;">n</text></g><g transform="matrix(0.926078,-0.377333,0.377333,0.926078,-51.8645,45.0961)"><text x="89.163px" y="154.918px" style="font-family:'ArialMT', 'Arial', sans-serif;font-size:10.8px;fill:#fcef00;">t</text></g><g transform="matrix(0.879582,-0.475748,0.475748,0.879582,-61.6456,62.9278)"><text x="93.485px" y="153.238px" style="font-family:'ArialMT', 'Arial', sans-serif;font-size:10.8px;fill:#fcef00;">w</text></g><g transform="matrix(0.806103,-0.591775,0.591775,0.806103,-67.9753,89.2365)"><text x="102.188px" y="148.349px" style="font-family:'ArialMT', 'Arial', sans-serif;font-size:10.8px;fill:#fcef00;">e</text></g><g transform="matrix(0.734759,-0.678328,0.678328,0.734759,-68.5757,111.696)"><text x="108.539px" y="143.536px" style="font-family:'ArialMT', 'Arial', sans-serif;font-size:10.8px;fill:#fcef00;">r</text></g><g transform="matrix(0.66211,-0.749407,0.749407,0.66211,-66.8979,131.568)"><text x="112.453px" y="139.97px" style="font-family:'ArialMT', 'Arial', sans-serif;font-size:10.8px;fill:#fcef00;">p</text></g><g transform="matrix(0.561853,-0.827237,0.827238,0.561852,-59.2489,156.034)"><text x="117.674px" y="133.949px" style="font-family:'ArialMT', 'Arial', sans-serif;font-size:10.8px;fill:#fcef00;">e</text></g><g transform="matrix(0.450273,-0.892891,0.892891,0.450272,-46.5439,178.986)"><text x="122.086px" y="127.292px" style="font-family:'ArialMT', 'Arial', sans-serif;font-size:10.8px;fill:#fcef00;">n</text></g></g><g><g><path d="M108.75,62.857c7.037,0 12.75,5.714 12.75,12.75c0,7.037 -5.713,12.75 -12.75,12.75c-7.037,0 -12.75,-5.713 -12.75,-12.75c0,-7.036 5.713,-12.75 12.75,-12.75Zm0,4.125c4.76,0 8.625,3.865 8.625,8.625c0,4.761 -3.865,8.625 -8.625,8.625c-4.76,0 -8.625,-3.864 -8.625,-8.625c0,-4.76 3.865,-8.625 8.625,-8.625Z"/><path d="M108.75,64.357c6.209,0 11.25,5.041 11.25,11.25c0,6.21 -5.041,11.25 -11.25,11.25c-6.209,0 -11.25,-5.04 -11.25,-11.25c0,-6.209 5.041,-11.25 11.25,-11.25Zm0,1.5c5.381,0 9.75,4.369 9.75,9.75c0,5.382 -4.369,9.75 -9.75,9.75c-5.381,0 -9.75,-4.368 -9.75,-9.75c0,-5.381 4.369,-9.75 9.75,-9.75Z" style="fill:#fcef00;"/></g><g><path d="M93,63c7.037,0 12.75,5.713 12.75,12.75c0,7.037 -5.713,12.75 -12.75,12.75c-7.037,0 -12.75,-5.713 -12.75,-12.75c0,-7.037 5.713,-12.75 12.75,-12.75Zm0,4.125c4.76,0 8.625,3.865 8.625,8.625c0,4.76 -3.865,8.625 -8.625,8.625c-4.76,0 -8.625,-3.865 -8.625,-8.625c0,-4.76 3.865,-8.625 8.625,-8.625Z"/><path d="M93,64.5c6.209,0 11.25,5.041 11.25,11.25c0,6.209 -5.041,11.25 -11.25,11.25c-6.209,0 -11.25,-5.041 -11.25,-11.25c0,-6.209 5.041,-11.25 11.25,-11.25Zm0,1.5c5.381,0 9.75,4.369 9.75,9.75c0,5.381 -4.369,9.75 -9.75,9.75c-5.381,0 -9.75,-4.369 -9.75,-9.75c0,-5.381 4.369,-9.75 9.75,-9.75Z" style="fill:#fcef00;"/></g><g><path d="M100.5,34.965c3.469,0 6.285,2.816 6.285,6.285c0,3.469 -2.816,6.285 -6.285,6.285c-3.469,0 -6.285,-2.816 -6.285,-6.285c0,-3.469 2.816,-6.285 6.285,-6.285Zm0,3.658c1.45,0 2.627,1.177 2.627,2.627c0,1.45 -1.177,2.627 -2.627,2.627c-1.45,0 -2.627,-1.177 -2.627,-2.627c0,-1.45 1.177,-2.627 2.627,-2.627Z"/><path d="M90.431,116.25l-3.343,-24.883l-0.836,-29.643c-0.385,-9.855 3.897,-17.202 12.333,-18.126c0.603,-0.066 1.261,0.552 1.906,0.553c0.955,0.001 1.837,-0.592 2.711,-0.479c8.205,1.062 12.728,7.051 12.298,18.052l-0.836,29.643l-2.507,24.883l-4.157,-3l-1.5,-51.75c-0.151,-3.48 -1.588,-9.938 -6,-9.75c-4.459,0.19 -5.156,6.503 -5.25,9.75l-0.75,51.75l-4.069,3l0,0Z"/><path d="M100.5,36c2.898,0 5.25,2.352 5.25,5.25c0,2.898 -2.352,5.25 -5.25,5.25c-2.898,0 -5.25,-2.352 -5.25,-5.25c0,-2.898 2.352,-5.25 5.25,-5.25Zm0,1.5c2.07,0 3.75,1.68 3.75,3.75c0,2.07 -1.68,3.75 -3.75,3.75c-2.07,0 -3.75,-1.68 -3.75,-3.75c0,-2.07 1.68,-3.75 3.75,-3.75Z" style="fill:#fcef00;"/><path d="M91.5,113.862l-3,-23.112l-0.75,-28.5c-0.37,-9.996 4.069,-17.262 12.75,-17.25c8.874,0.012 13.5,5.711 13.5,17.25l-0.75,28.5l-2.25,23.112l-1.5,-1.362l-1.5,-50.25c-0.165,-6.434 -2.036,-11.967 -7.5,-12c-5.222,-0.032 -6.667,5.539 -6.75,12l-0.75,50.25l-1.5,1.362Z" style="fill:#fcef00;"/></g><g><path d="M80.338,77.25c-0.058,-0.492 -0.088,-0.993 -0.088,-1.5c0,-7.037 5.713,-12.75 12.75,-12.75c7.037,0 12.75,5.713 12.75,12.75c0,0.507 -0.03,1.008 -0.088,1.5l-4.167,0c0.085,-0.487 0.13,-0.988 0.13,-1.5c0,-4.76 -3.865,-8.625 -8.625,-8.625c-4.76,0 -8.625,3.865 -8.625,8.625c0,0.512 0.045,1.013 0.13,1.5l-4.167,0Z"/><path d="M81.849,77.25c-0.065,-0.491 -0.099,-0.991 -0.099,-1.5c0,-6.209 5.041,-11.25 11.25,-11.25c6.209,0 11.25,5.041 11.25,11.25c0,0.509 -0.034,1.009 -0.099,1.5l-1.516,0c0.076,-0.489 0.115,-0.99 0.115,-1.5c0,-5.381 -4.369,-9.75 -9.75,-9.75c-5.381,0 -9.75,4.369 -9.75,9.75c0,0.51 0.039,1.011 0.115,1.5l-1.516,0l0,0Z" style="fill:#fcef00;"/><path d="M104.172,63.706l1.726,3.76c-3.36,1.178 -5.773,4.38 -5.773,8.141c0,0.562 0.054,1.111 0.157,1.643l-4.177,0c-0.069,-0.538 -0.105,-1.086 -0.105,-1.643c0,-5.423 3.394,-10.06 8.172,-11.901l0,0Z"/><path d="M104.799,65.072l0.628,1.367c-3.747,1.361 -6.427,4.954 -6.427,9.168c0,0.56 0.047,1.109 0.138,1.643l-1.519,0c-0.078,-0.536 -0.119,-1.085 -0.119,-1.643c0,-4.818 3.036,-8.934 7.299,-10.535Z" style="fill:#fcef00;"/></g><g><path d="M121.412,74.107c0.058,0.492 0.088,0.993 0.088,1.5c0,7.037 -5.713,12.75 -12.75,12.75c-7.037,0 -12.75,-5.713 -12.75,-12.75c0,-0.507 0.03,-1.008 0.088,-1.5l4.167,0c-0.085,0.488 -0.13,0.989 -0.13,1.5c0,4.761 3.865,8.625 8.625,8.625c4.76,0 8.625,-3.864 8.625,-8.625c0,-0.511 -0.045,-1.012 -0.13,-1.5l4.167,0Z"/><path d="M119.901,74.107c0.065,0.491 0.099,0.992 0.099,1.5c0,6.21 -5.041,11.25 -11.25,11.25c-6.209,0 -11.25,-5.04 -11.25,-11.25c0,-0.508 0.034,-1.009 0.099,-1.5l1.516,0c-0.076,0.489 -0.115,0.99 -0.115,1.5c0,5.382 4.369,9.75 9.75,9.75c5.381,0 9.75,-4.368 9.75,-9.75c0,-0.51 -0.039,-1.011 -0.115,-1.5l1.516,0Z" style="fill:#fcef00;"/><path d="M105.75,75.75c0,5.14 -3.048,9.573 -7.433,11.59l-2.292,-3.511c3.27,-1.226 5.6,-4.383 5.6,-8.079l4.125,0Z"/><path d="M104.25,75.75c0,4.615 -2.784,8.584 -6.763,10.318l-0.834,-1.277c3.574,-1.446 6.097,-4.951 6.097,-9.041l1.5,0Z" style="fill:#fcef00;"/></g></g><rect x="68.624" y="0.248" width="69.127" height="29.339"/><g id="Layer1"><path d="M115.125,21l2.625,0l0,-6.75l4.5,6.75l3,0c0,0 -3.839,-5.906 -4.703,-7.236c-0.104,-0.159 -0.098,-0.365 0.014,-0.518c0.804,-1.096 3.939,-5.371 3.939,-5.371l-3,0l-3.75,4.875l0,-4.875l-2.625,0l0,13.125Z" style="fill:#fcef00;"/><path d="M95.37,7.875l4.858,13.125l-2.429,0l-1.157,-3l-5.784,0l-1.157,3l-2.429,0l4.858,-13.125l3.24,0Zm-3.644,7.875l4.048,0l-2.024,-5.25l-2.024,5.25Z" style="fill:#fcef00;"/><path d="M62.25,21l2.25,0l0,-10.5l5.625,10.5l3,0l0,-13.125l-2.25,0l0,9.75l-5.25,-9.75l-3.375,0l0,13.125Z" style="fill:#fcef00;"/><rect x="44.25" y="7.875" width="3" height="13.125" style="fill:#fcef00;"/><path d="M12.375,7.875l3,13.125l3.75,0l2.25,-9l2.25,9l3.75,0l3,-13.125l-3,0l-1.875,9.375l-2.625,-9.375l-3,0l-2.625,9.375l-1.875,-9.375l-3,0Z" style="fill:#fdf000;"/></g></g></g></svg>